#!OML:ASF I:\Actors\actors\Patient Classification 2\Patient 1\Session 1\actor1.ASF
:FULLY-SPECIFIED
:DEGREES
220
root -2.96209 18.1893 8.09518 2.9791 -0.0688927 -2.82152
lowerback 3.92945 0.981277 0.262806
upperback 0.557584 1.20158 -7.00489
thorax -1.47429 0.588583 -7.52651
lowerneck -15.8414 2.06518 -3.39463
upperneck -4.40053 3.5552 -16.6916
head 1.5707 1.36682 -4.34104
rclavicle 8.74653e-015 4.45278e-014
rhumerus -67.8288 39.3097 -65.3265
rradius 112.761
rwrist -32.6564
rhand 34.61 -51.2173
rfingers 7.12502
rthumb 57.7969 -67.1196
lclavicle 8.74653e-015 4.45278e-014
lhumerus -16.3995 -27.0348 42.1132
lradius 130.3
lwrist 82.9559
lhand 31.5077 -0.309186
lfingers 7.12502
lthumb 55.0571 17.7881
rfemur -7.22384 -6.24725 23.1526
rtibia 26.1752
rfoot -24.1958 3.76446
rtoes 2.65713
lfemur -13.9107 -4.40052 -3.96967
ltibia 36.1222
lfoot -22.1776 8.97657
ltoes -53.7266
221
root -2.9453 18.1872 8.12346 2.97714 0.0471052 -2.74084
lowerback 3.83989 1.05488 0.36012
upperback 0.45831 1.30624 -6.7605
thorax -1.51651 0.638612 -7.32315
lowerneck -16.0506 2.34679 -3.00357
upperneck -4.9102 3.79287 -15.9497
head 1.44659 1.52606 -4.1611
rclavicle -1.37161e-014 2.22639e-014
rhumerus -65.4577 37.3303 -62.3608
rradius 113.561
rwrist -33.598
rhand 34.8562 -51.8751
rfingers 7.12502
rthumb 58.0119 -67.5858
lclavicle -1.37161e-014 2.22639e-014
lhumerus -16.2167 -23.7869 44.7229
lradius 130.402
lwrist 82.4677
lhand 30.4589 -1.39952
lfingers 7.12502
lthumb 54.119 17.3577
rfemur -7.10781 -6.12464 23.0155
rtibia 26.1732
rfoot -24.3628 3.63387
rtoes 2.69016
lfemur -13.8699 -4.41394 -4.12051
ltibia 36.143
lfoot -22.1975 8.93836
ltoes -53.8402
222
root -2.92595 18.1864 8.1513 2.99305 0.203516 -2.61505
lowerback 3.6953 1.1235 0.378084
upperback 0.399854 1.40562 -6.4701
thorax -1.48982 0.688553 -7.02216
lowerneck -16.3521 2.64636 -2.64579
upperneck -5.33398 4.08306 -15.1326
head 1.36099 1.70136 -3.94981
rclavicle 8.74653e-015 6.36111e-015
rhumerus -62.9033 35.0201 -59.3547
rradius 114.266
rwrist -34.4034
rhand 34.7746 -52.1526
rfingers 7.12502
rthumb 57.9406 -67.9272
lclavicle 8.74653e-015 6.36111e-015
lhumerus -15.8831 -20.537 47.4127
lradius 130.39
lwrist 82.0443
lhand 29.1515 -2.51811
lfingers 7.12502
lthumb 52.9425 17.0106
rfemur -7.00528 -6.09935 22.8185
rtibia 26.1533
rfoot -24.5016 3.54154
rtoes 2.63408
lfemur -13.8536 -4.52379 -4.32103
ltibia 36.1663
lfoot -22.269 8.86756
ltoes -53.8218
223
root -2.90564 18.1877 8.1788 3.0123 0.386525 -2.56351
lowerback 3.51798 1.19515 0.452529
upperback 0.401099 1.51606 -6.10795
thorax -1.38309 0.746279 -6.67622
lowerneck -16.8273 2.85795 -2.30557
upperneck -5.58897 4.2971 -14.3866
head 1.34861 1.81881 -3.76147
rclavicle 1.8487e-014 -6.52014e-014
rhumerus -60.319 32.3481 -56.3802
rradius 114.99
rwrist -35.5182
rhand 34.7295 -52.4531
rfingers 7.12502
rthumb 57.9012 -68.2628
lclavicle 1.8487e-014 -6.52014e-014
lhumerus -15.3677 -17.3 50.1839
lradius 130.262
lwrist 81.8235
lhand 27.624 -3.55435
lfingers 7.12502
lthumb 51.5587 16.8098
rfemur -6.90859 -6.17652 22.6981
rtibia 26.1406
rfoot -24.6023 3.4239
rtoes 2.19558
lfemur -13.8555 -4.63604 -4.42992
ltibia 36.1922
lfoot -22.2633 8.79343
ltoes -53.9111
224
root -2.88533 18.1901 8.20601 3.06769 0.524491 -2.54431
lowerback 3.3362 1.30898 0.582439
upperback 0.410761 1.68438 -5.73939
thorax -1.25843 0.833096 -6.35864
lowerneck -17.1854 2.94409 -1.96282
upperneck -5.97338 4.33747 -13.373
head 1.34444 1.87237 -3.83708
rclavicle 1.27222e-014 -2.54444e-014
rhumerus -57.9218 29.3676 -53.6895
rradius 115.656
rwrist -36.673
rhand 34.69 -51.9449
rfingers 7.12502
rthumb 57.8668 -67.7852
lclavicle 1.27222e-014 -2.54444e-014
lhumerus -14.7913 -14.2966 53.0832
lradius 130.073
lwrist 81.4894
lhand 25.7822 -4.95646
lfingers 7.12502
lthumb 49.8783 16.3299
rfemur -6.85969 -6.2004 22.6212
rtibia 26.148
rfoot -24.7 3.25745
rtoes 1.75556
lfemur -13.8853 -4.65964 -4.49985
ltibia 36.2187
lfoot -22.1681 8.72435
ltoes -54.1357
225
root -2.86351 18.1929 8.23265 3.15683 0.630552 -2.45094
lowerback 3.08687 1.4249 0.64104
upperback 0.321093 1.84825 -5.41749
thorax -1.20116 0.914993 -6.05011
lowerneck -17.021 2.95922 -1.65
upperneck -6.45116 4.23065 -12.5065
head 1.1247 1.86672 -3.59213
rclavicle 7.55382e-015 0
rhumerus -55.8029 26.3884 -51.4455
rradius 116.277
rwrist -37.5038
rhand 34.8522 -51.4175
rfingers 7.12502
rthumb 58.0083 -67.1315
lclavicle 7.55382e-015 0
lhumerus -14.6867 -11.6703 56.1328
lradius 130.006
lwrist 80.7343
lhand 23.5779 -6.95477
lfingers 7.12502
lthumb 47.8524 15.3266
rfemur -6.85651 -6.12648 22.4743
rtibia 26.1749
rfoot -24.8537 2.96839
rtoes 1.12119
lfemur -13.938 -4.71033 -4.66724
ltibia 36.2418
lfoot -22.1724 8.6913
ltoes -54.2889
